<svg width="64" height="64" viewBox="0 0 64 64" fill="none" xmlns="http://www.w3.org/2000/svg">
<g clip-path="url(#clip0_2031_853)">
<path fill-rule="evenodd" clip-rule="evenodd" d="M3.64182 0.62484C2.8087 -0.20828 1.45795 -0.20828 0.624843 0.62484C-0.208277 1.45795 -0.208277 2.8087 0.624843 3.64182L6.20095 9.21792C2.44464 11.9301 0 16.3462 0 21.3333V42.6667C0 50.9141 6.68588 57.6 14.9333 57.6H49.0667C50.7259 57.6 52.3219 57.3294 53.8129 56.83L60.3582 63.3751C61.1913 64.2083 62.5421 64.2083 63.3751 63.3751C64.2083 62.5421 64.2083 61.1913 63.3751 60.3582L3.64182 0.62484ZM50.2513 53.2683L47.525 50.542C47.2433 51.4341 47.0567 52.3685 46.9772 53.3333H49.0667C49.4671 53.3333 49.8623 53.3113 50.2513 53.2683ZM44.2323 47.2494L37.1109 40.1279C35.6309 41.0605 33.8785 41.6 32 41.6C26.698 41.6 22.4 37.302 22.4 32C22.4 30.1215 22.9395 28.3691 23.8721 26.8891L17.4374 20.4544C14.3072 24.2483 9.56928 26.6667 4.26667 26.6667V37.3333C13.3341 37.3333 20.75 44.4046 21.3006 53.3333H42.6994C42.8327 51.1718 43.3684 49.1191 44.2323 47.2494ZM14.4018 17.4189L9.27349 12.2905C6.26612 14.1766 4.26667 17.5215 4.26667 21.3333V22.4C8.39169 22.4 12.061 20.4487 14.4018 17.4189ZM27.034 30.051C26.7969 30.6547 26.6667 31.3121 26.6667 32C26.6667 34.9455 29.0545 37.3333 32 37.3333C32.6879 37.3333 33.3453 37.2031 33.949 36.966L27.034 30.051ZM17.0228 53.3333C16.4809 46.7632 10.9767 41.6 4.26667 41.6V42.6667C4.26667 48.5577 9.04235 53.3333 14.9333 53.3333H17.0228Z" fill="white"/>
<path d="M30.8203 22.4716L41.5266 33.1779C41.5739 32.7918 41.5982 32.3986 41.5982 31.9998C41.5982 26.6979 37.3003 22.4 31.9984 22.4C31.5996 22.4 31.2064 22.4243 30.8203 22.4716Z" fill="white"/>
<path fill-rule="evenodd" clip-rule="evenodd" d="M59.7339 37.3333C55.79 37.3333 52.1586 38.6711 49.2685 40.9177L52.3173 43.9664C54.4098 42.4764 56.9694 41.6 59.7339 41.6V42.6667C59.7339 45.1151 58.9091 47.3708 57.522 49.1711L60.5571 52.2061C62.7075 49.6189 64.0006 46.2938 64.0006 42.6667V21.3333C64.0006 13.0859 57.3147 6.4 49.0673 6.4H14.9339C14.8732 6.4 14.8125 6.40036 14.752 6.40109L21.0528 12.7019C21.175 12.0362 21.2585 11.3569 21.3012 10.6667H42.7C43.2506 19.5954 50.6665 26.6667 59.7339 26.6667V37.3333ZM46.9778 10.6667C47.5197 17.2368 53.0238 22.4 59.7339 22.4V21.3333C59.7339 15.4423 54.9582 10.6667 49.0673 10.6667H46.9778Z" fill="white"/>
</g>
<defs>
<clipPath id="clip0_2031_853">
<rect width="64" height="64" fill="white"/>
</clipPath>
</defs>
</svg>
